<?xml version="1.0" encoding="utf-8"?><!DOCTYPE svg PUBLIC "-//W3C//DTD SVG 1.1//EN" "http://www.w3.org/Graphics/SVG/1.1/DTD/svg11.dtd"><svg xmlns="http://www.w3.org/2000/svg" viewBox="0 0 89 89" shape-rendering="crispEdges"><path fill="#FFFFFF" d="M0 0h89v89H0z"/><path stroke="#111111" d="M4 4.5h7m1 0h3m1 0h1m1 0h1m1 0h1m1 0h4m1 0h1m3 0h1m1 0h1m1 0h3m1 0h2m1 0h2m5 0h1m3 0h4m1 0h1m2 0h2m1 0h1m1 0h8m4 0h7M4 5.5h1m5 0h1m1 0h2m2 0h4m2 0h1m3 0h4m2 0h3m6 0h1m1 0h4m2 0h1m8 0h3m3 0h1m1 0h2m5 0h4m1 0h1m5 0h1M4 6.5h1m1 0h3m1 0h1m1 0h3m2 0h2m1 0h1m1 0h5m1 0h1m1 0h1m1 0h1m1 0h3m1 0h2m1 0h4m1 0h3m1 0h5m3 0h1m3 0h1m1 0h1m5 0h5m1 0h1m1 0h1m1 0h3m1 0h1M4 7.5h1m1 0h3m1 0h1m2 0h1m3 0h1m2 0h4m1 0h2m1 0h1m4 0h2m2 0h2m3 0h1m2 0h1m1 0h3m1 0h1m4 0h2m3 0h1m1 0h2m1 0h2m1 0h1m1 0h1m2 0h1m1 0h1m1 0h1m1 0h3m1 0h1M4 8.5h1m1 0h3m1 0h1m1 0h1m1 0h1m4 0h2m3 0h2m2 0h5m1 0h2m1 0h3m3 0h1m1 0h1m1 0h1m2 0h1m1 0h6m3 0h1m1 0h1m2 0h1m2 0h1m2 0h1m5 0h1m1 0h3m1 0h1M4 9.5h1m5 0h1m2 0h1m2 0h3m2 0h1m1 0h2m2 0h2m3 0h2m1 0h2m2 0h3m1 0h1m1 0h2m1 0h1m1 0h1m1 0h1m3 0h1m2 0h2m1 0h1m1 0h2m3 0h1m1 0h1m1 0h1m1 0h1m2 0h1m5 0h1M4 10.5h7m1 0h1m1 0h1m1 0h1m1 0h1m1 0h1m1 0h1m1 0h1m1 0h1m1 0h1m1 0h1m1 0h1m1 0h1m1 0h1m1 0h1m1 0h1m1 0h1m1 0h1m1 0h1m1 0h1m1 0h1m1 0h1m1 0h1m1 0h1m1 0h1m1 0h1m1 0h1m1 0h1m1 0h1m1 0h1m1 0h1m1 0h1m1 0h1m1 0h1m1 0h7M13 11.5h1m1 0h1m1 0h1m2 0h1m1 0h1m1 0h2m2 0h1m3 0h2m3 0h4m2 0h3m1 0h3m2 0h1m3 0h2m1 0h2m1 0h1m1 0h2m2 0h2m1 0h1m1 0h1m2 0h1M4 12.5h1m2 0h8m1 0h1m1 0h3m2 0h1m2 0h9m3 0h1m1 0h3m2 0h3m4 0h5m1 0h1m1 0h3m1 0h1m1 0h7m1 0h1m1 0h2m2 0h1m1 0h3M7 13.5h1m1 0h1m3 0h3m2 0h4m1 0h1m1 0h1m1 0h2m3 0h2m1 0h1m1 0h1m3 0h1m3 0h2m1 0h1m1 0h1m2 0h3m1 0h1m2 0h1m1 0h3m2 0h2m1 0h1m1 0h1m1 0h1m1 0h4m2 0h1m1 0h1M4 14.5h1m1 0h2m2 0h1m1 0h3m1 0h2m1 0h1m1 0h1m1 0h1m2 0h1m1 0h2m2 0h3m6 0h2m3 0h1m1 0h2m1 0h4m1 0h8m3 0h1m2 0h2m2 0h2m1 0h3m1 0h3M8 15.5h1m2 0h2m1 0h1m1 0h1m5 0h3m1 0h3m3 0h4m1 0h2m1 0h1m1 0h3m3 0h2m1 0h1m1 0h3m1 0h1m1 0h2m3 0h4m4 0h3m1 0h3M4 16.5h4m2 0h2m2 0h4m3 0h2m7 0h1m2 0h2m2 0h1m1 0h1m1 0h1m2 0h1m4 0h1m3 0h2m1 0h2m2 0h3m3 0h6m2 0h2m2 0h1m1 0h1m2 0h2M5 17.5h2m7 0h5m3 0h5m4 0h2m2 0h1m3 0h3m2 0h1m3 0h1m2 0h1m3 0h1m5 0h1m3 0h7m1 0h1m2 0h4m1 0h3M4 18.5h3m3 0h1m1 0h1m1 0h4m2 0h1m1 0h2m1 0h1m2 0h3m4 0h2m1 0h2m3 0h2m2 0h1m2 0h2m1 0h1m3 0h2m1 0h1m1 0h2m6 0h1m1 0h4m2 0h1m1 0h4M6 19.5h1m1 0h1m5 0h5m2 0h1m2 0h3m6 0h1m1 0h4m1 0h1m4 0h1m3 0h1m1 0h1m4 0h1m3 0h1m2 0h3m1 0h1m2 0h2m1 0h2m1 0h4m1 0h1m2 0h1M5 20.5h2m3 0h3m3 0h2m2 0h2m5 0h4m1 0h4m1 0h3m2 0h1m3 0h1m1 0h1m4 0h1m4 0h8m1 0h1m3 0h2m3 0h1m1 0h1m1 0h4M5 21.5h1m1 0h2m2 0h1m1 0h1m1 0h1m2 0h3m2 0h3m2 0h1m3 0h1m4 0h1m1 0h5m3 0h1m2 0h2m2 0h2m1 0h2m9 0h1m5 0h2m2 0h1m1 0h2M4 22.5h2m4 0h1m2 0h7m1 0h1m1 0h1m3 0h1m1 0h4m4 0h1m1 0h2m1 0h2m1 0h1m2 0h1m1 0h2m1 0h1m2 0h1m2 0h3m2 0h1m1 0h2m3 0h1m2 0h1m3 0h7M4 23.5h1m3 0h2m2 0h2m2 0h1m1 0h1m1 0h2m3 0h1m5 0h5m1 0h2m3 0h1m3 0h1m1 0h2m1 0h2m2 0h2m2 0h1m1 0h2m2 0h2m1 0h4m1 0h1m1 0h1m1 0h1m2 0h2m2 0h1M4 24.5h3m3 0h1m2 0h1m1 0h4m1 0h1m1 0h1m2 0h1m1 0h5m1 0h2m2 0h2m2 0h1m3 0h1m1 0h1m1 0h2m2 0h2m1 0h1m1 0h1m2 0h3m4 0h1m1 0h4m1 0h1m1 0h1m1 0h1m1 0h3M5 25.5h1m1 0h3m3 0h2m3 0h1m1 0h2m1 0h1m2 0h2m2 0h2m2 0h2m1 0h1m1 0h4m4 0h4m2 0h2m1 0h1m2 0h1m1 0h3m1 0h1m2 0h3m1 0h1m4 0h3m1 0h1M6 26.5h1m1 0h1m1 0h2m2 0h4m1 0h3m1 0h3m4 0h1m1 0h1m4 0h4m2 0h3m3 0h1m1 0h2m1 0h1m5 0h1m7 0h1m4 0h6m1 0h3M4 27.5h2m2 0h2m1 0h1m2 0h1m2 0h1m1 0h2m1 0h3m1 0h1m1 0h3m2 0h2m1 0h5m1 0h1m1 0h1m1 0h4m4 0h1m2 0h2m1 0h5m3 0h1m4 0h2m1 0h2m4 0h1M4 28.5h1m1 0h1m1 0h6m1 0h1m4 0h1m2 0h2m3 0h6m1 0h1m2 0h2m1 0h4m1 0h3m1 0h1m1 0h5m2 0h2m1 0h2m3 0h5m1 0h1m2 0h7m1 0h1M6 29.5h1m1 0h1m3 0h1m1 0h5m1 0h2m1 0h1m3 0h2m3 0h1m2 0h8m1 0h2m2 0h3m1 0h1m3 0h5m1 0h1m2 0h2m1 0h1m1 0h1m1 0h1m1 0h1m1 0h1m3 0h1m1 0h1m1 0h1M5 30.5h2m1 0h1m1 0h1m1 0h1m1 0h5m3 0h7m1 0h1m1 0h3m1 0h1m1 0h1m1 0h3m1 0h1m2 0h3m1 0h2m1 0h1m1 0h1m2 0h4m3 0h2m5 0h1m1 0h2m1 0h1m1 0h2M7 31.5h2m3 0h1m2 0h1m3 0h1m5 0h4m3 0h1m2 0h1m1 0h1m1 0h1m2 0h2m3 0h2m2 0h2m3 0h3m2 0h1m4 0h1m1 0h1m4 0h1m2 0h1m3 0h2m1 0h1M5 32.5h9m1 0h1m4 0h2m1 0h1m3 0h7m1 0h1m1 0h1m1 0h2m1 0h1m2 0h1m1 0h1m1 0h1m2 0h9m1 0h2m3 0h1m3 0h1m3 0h7m2 0h1M4 33.5h1m1 0h1m1 0h2m1 0h4m3 0h1m1 0h1m1 0h1m1 0h4m5 0h3m2 0h1m1 0h1m4 0h1m1 0h4m1 0h2m1 0h2m2 0h1m1 0h5m1 0h2m3 0h3m1 0h1m1 0h1m1 0h5M4 34.5h1m1 0h1m2 0h2m3 0h1m1 0h1m6 0h3m2 0h3m2 0h1m1 0h1m1 0h1m1 0h2m1 0h2m4 0h1m2 0h2m1 0h1m2 0h4m3 0h1m1 0h3m1 0h1m1 0h1m1 0h1m4 0h1M4 35.5h5m3 0h1m3 0h1m1 0h2m3 0h1m2 0h1m2 0h4m2 0h4m1 0h2m3 0h3m3 0h1m1 0h3m2 0h1m1 0h1m3 0h1m1 0h4m1 0h4m1 0h1m1 0h4m1 0h2M4 36.5h1m2 0h1m1 0h3m2 0h1m1 0h1m2 0h1m2 0h1m2 0h4m3 0h1m3 0h3m5 0h1m3 0h2m1 0h1m3 0h2m4 0h3m1 0h2m3 0h1m3 0h1m4 0h1m1 0h1M5 37.5h5m6 0h2m1 0h1m2 0h2m5 0h1m4 0h1m4 0h3m1 0h1m2 0h2m1 0h5m1 0h2m1 0h4m3 0h1m3 0h2m5 0h1m1 0h1m1 0h1m3 0h1M5 38.5h4m1 0h1m8 0h1m2 0h1m2 0h2m1 0h1m1 0h1m2 0h1m1 0h1m3 0h2m1 0h2m2 0h1m1 0h1m5 0h2m1 0h3m1 0h2m1 0h2m2 0h3m1 0h4m1 0h5m2 0h1M5 39.5h5m4 0h1m6 0h1m1 0h3m1 0h1m2 0h2m1 0h3m2 0h5m1 0h5m1 0h3m2 0h2m3 0h4m1 0h1m4 0h1m2 0h2m4 0h2m1 0h1m1 0h1M4 40.5h1m4 0h2m1 0h2m1 0h2m2 0h1m1 0h2m1 0h1m2 0h1m1 0h2m3 0h2m2 0h1m1 0h1m1 0h1m1 0h1m3 0h1m1 0h2m2 0h1m2 0h1m1 0h2m2 0h1m1 0h4m2 0h5m1 0h3m2 0h2M4 41.5h1m1 0h3m5 0h1m4 0h2m1 0h2m2 0h1m5 0h1m7 0h1m6 0h1m3 0h2m2 0h2m8 0h7m4 0h2m1 0h1m1 0h1m1 0h2M6 42.5h5m2 0h2m2 0h1m1 0h1m3 0h4m1 0h1m4 0h4m1 0h2m1 0h2m1 0h1m1 0h1m3 0h3m4 0h1m4 0h1m3 0h3m1 0h2m2 0h1m1 0h3m1 0h1m2 0h2M6 43.5h4m1 0h1m2 0h2m5 0h1m5 0h1m2 0h1m2 0h2m3 0h4m3 0h4m1 0h3m1 0h1m1 0h1m2 0h4m1 0h1m6 0h1m1 0h1m1 0h2m2 0h1m2 0h3M4 44.5h2m1 0h2m1 0h2m1 0h4m1 0h7m3 0h2m1 0h1m1 0h6m3 0h1m5 0h1m6 0h3m1 0h2m3 0h1m3 0h3m1 0h1m1 0h9m1 0h1M4 45.5h1m1 0h2m1 0h1m1 0h4m1 0h1m1 0h2m2 0h5m2 0h1m1 0h1m4 0h1m6 0h1m2 0h1m2 0h6m5 0h1m1 0h2m1 0h1m1 0h1m1 0h7m2 0h1m2 0h4M4 46.5h2m1 0h15m1 0h1m2 0h1m1 0h1m2 0h4m2 0h1m1 0h1m2 0h1m2 0h1m1 0h3m1 0h2m1 0h4m1 0h1m2 0h2m2 0h1m2 0h2m1 0h2m3 0h1m1 0h3m2 0h1M4 47.5h4m1 0h1m1 0h2m2 0h1m2 0h2m2 0h1m6 0h1m6 0h1m2 0h4m3 0h3m1 0h1m1 0h3m6 0h1m1 0h1m1 0h1m1 0h1m1 0h1m1 0h2m1 0h1m2 0h1m2 0h3m1 0h1M4 48.5h1m1 0h3m1 0h2m2 0h1m1 0h1m2 0h1m1 0h2m1 0h5m1 0h1m1 0h1m1 0h1m2 0h2m2 0h2m2 0h1m1 0h7m4 0h3m2 0h4m1 0h1m3 0h1m1 0h6m1 0h2m1 0h1M5 49.5h1m2 0h2m3 0h1m2 0h1m1 0h3m1 0h2m2 0h2m1 0h1m1 0h2m1 0h1m1 0h1m1 0h3m1 0h1m1 0h2m2 0h1m1 0h2m3 0h3m1 0h1m3 0h2m1 0h2m6 0h1m1 0h1m2 0h2m1 0h3M5 50.5h3m1 0h2m3 0h1m1 0h1m1 0h2m2 0h2m2 0h2m1 0h5m2 0h2m6 0h4m1 0h1m1 0h1m5 0h4m3 0h1m2 0h1m2 0h3m1 0h1m1 0h1m6 0h2M6 51.5h4m4 0h1m2 0h2m1 0h1m3 0h1m1 0h3m3 0h1m5 0h1m2 0h4m2 0h2m2 0h2m1 0h4m1 0h4m2 0h1m3 0h1m2 0h1m1 0h2m1 0h1m2 0h3M4 52.5h1m1 0h8m1 0h5m3 0h2m1 0h1m1 0h5m1 0h1m2 0h1m1 0h1m2 0h4m1 0h2m3 0h5m1 0h4m4 0h2m5 0h1m1 0h7m2 0h1M7 53.5h2m3 0h1m1 0h3m1 0h2m2 0h1m1 0h3m1 0h1m3 0h1m3 0h3m1 0h2m2 0h1m2 0h2m3 0h1m3 0h3m1 0h1m1 0h2m2 0h7m1 0h1m1 0h1m3 0h2M5 54.5h4m1 0h1m1 0h1m4 0h2m4 0h2m2 0h2m1 0h1m1 0h5m1 0h1m1 0h3m4 0h1m3 0h2m1 0h1m1 0h1m2 0h1m2 0h4m1 0h1m1 0h2m1 0h1m2 0h2m1 0h1m1 0h1m2 0h2M5 55.5h4m3 0h1m1 0h2m3 0h2m4 0h4m3 0h1m2 0h2m2 0h3m1 0h2m1 0h1m1 0h1m2 0h2m3 0h1m4 0h3m1 0h3m4 0h1m3 0h1m3 0h1m1 0h2M7 56.5h7m1 0h1m1 0h2m2 0h1m1 0h2m3 0h8m1 0h1m1 0h1m7 0h3m1 0h6m1 0h2m2 0h3m5 0h1m2 0h1m1 0h6m3 0h1M6 57.5h4m6 0h1m1 0h2m2 0h1m1 0h3m1 0h2m1 0h2m1 0h5m1 0h5m3 0h1m2 0h2m3 0h1m1 0h1m1 0h1m1 0h2m2 0h5m1 0h1m2 0h2m1 0h1m1 0h1m3 0h1M4 58.5h1m1 0h1m3 0h1m6 0h1m1 0h1m1 0h4m3 0h6m3 0h2m4 0h1m2 0h1m5 0h4m1 0h1m3 0h1m1 0h1m1 0h1m2 0h2m3 0h4m3 0h3M4 59.5h1m1 0h4m1 0h5m1 0h2m2 0h1m4 0h5m1 0h2m1 0h1m5 0h4m3 0h1m2 0h1m3 0h1m1 0h1m3 0h6m5 0h1m2 0h2m2 0h1m1 0h1m2 0h1M5 60.5h2m1 0h1m1 0h1m1 0h2m5 0h3m4 0h1m4 0h2m1 0h2m1 0h1m2 0h1m3 0h1m1 0h4m1 0h7m2 0h1m1 0h1m5 0h4m1 0h2m1 0h1m5 0h2M4 61.5h2m1 0h2m5 0h1m1 0h3m2 0h4m2 0h3m3 0h2m2 0h2m1 0h2m2 0h2m1 0h2m2 0h3m4 0h1m2 0h3m7 0h3m1 0h2m2 0h2m1 0h1M4 62.5h2m1 0h1m1 0h4m2 0h3m2 0h1m1 0h1m4 0h3m3 0h3m2 0h1m3 0h3m1 0h2m2 0h3m2 0h1m3 0h2m1 0h5m7 0h1m1 0h1m2 0h2m1 0h2M5 63.5h1m1 0h2m3 0h2m1 0h1m6 0h3m1 0h3m3 0h2m2 0h1m1 0h1m2 0h1m2 0h3m4 0h2m2 0h1m1 0h1m2 0h4m2 0h4m1 0h1m4 0h2m2 0h1m1 0h2M6 64.5h1m3 0h1m2 0h6m1 0h1m1 0h2m1 0h1m1 0h1m1 0h3m3 0h4m1 0h4m1 0h1m1 0h1m1 0h1m1 0h2m1 0h1m3 0h4m3 0h1m1 0h2m3 0h1m2 0h1m1 0h1m1 0h2m1 0h1M4 65.5h1m2 0h2m3 0h1m2 0h1m1 0h2m3 0h1m1 0h1m2 0h1m2 0h2m3 0h2m1 0h1m3 0h1m2 0h1m1 0h2m1 0h1m2 0h1m1 0h1m2 0h2m3 0h1m1 0h1m1 0h1m1 0h1m1 0h1m2 0h1m1 0h1m3 0h1m2 0h1M4 66.5h2m3 0h4m1 0h3m1 0h1m3 0h1m1 0h3m1 0h1m1 0h1m1 0h5m3 0h2m3 0h2m2 0h1m2 0h1m1 0h2m2 0h7m2 0h2m3 0h1m3 0h3m1 0h1m2 0h2M5 67.5h1m2 0h1m3 0h3m2 0h5m1 0h2m1 0h1m1 0h5m2 0h5m1 0h2m3 0h2m1 0h4m1 0h1m1 0h5m2 0h2m4 0h3m4 0h1m1 0h1m2 0h3M4 68.5h2m3 0h5m1 0h1m2 0h1m2 0h1m2 0h1m1 0h1m1 0h1m1 0h1m1 0h3m1 0h2m1 0h1m2 0h1m1 0h3m2 0h5m1 0h1m1 0h2m1 0h1m6 0h3m3 0h3m1 0h1m3 0h1M4 69.5h1m1 0h1m1 0h1m3 0h1m2 0h2m2 0h1m1 0h2m3 0h1m5 0h2m1 0h1m2 0h1m1 0h1m3 0h4m3 0h1m3 0h2m3 0h2m1 0h4m3 0h1m2 0h2m3 0h1m2 0h4M6 70.5h5m6 0h4m3 0h1m1 0h2m1 0h3m3 0h2m2 0h1m2 0h1m1 0h1m2 0h1m1 0h3m7 0h1m3 0h1m1 0h2m1 0h3m1 0h1m1 0h1m3 0h1m2 0h1m1 0h2M5 71.5h1m1 0h1m1 0h1m1 0h1m4 0h2m4 0h4m1 0h1m1 0h1m2 0h1m2 0h5m2 0h1m1 0h4m3 0h1m5 0h1m1 0h2m4 0h4m7 0h1m1 0h2m3 0h2M4 72.5h1m1 0h1m1 0h1m1 0h2m1 0h1m3 0h5m2 0h2m4 0h1m2 0h2m2 0h1m1 0h1m1 0h1m1 0h4m1 0h1m1 0h2m1 0h1m1 0h1m1 0h2m2 0h1m2 0h2m1 0h6m1 0h1m1 0h4m1 0h1m2 0h1M4 73.5h1m7 0h4m2 0h3m1 0h1m1 0h1m1 0h1m3 0h3m3 0h1m1 0h2m1 0h1m2 0h1m1 0h1m2 0h1m1 0h4m7 0h3m1 0h1m4 0h3m1 0h5m1 0h4M5 74.5h3m2 0h2m2 0h1m1 0h1m3 0h1m1 0h3m2 0h1m2 0h3m4 0h2m1 0h2m1 0h1m2 0h2m1 0h4m1 0h3m2 0h1m1 0h3m1 0h1m1 0h2m1 0h3m1 0h1m1 0h5m1 0h1m1 0h1M5 75.5h1m3 0h1m1 0h1m1 0h1m2 0h1m1 0h1m1 0h1m1 0h4m1 0h4m2 0h2m5 0h1m1 0h1m2 0h1m4 0h1m3 0h2m2 0h2m4 0h1m1 0h3m1 0h1m1 0h5m1 0h1m2 0h3M5 76.5h3m2 0h1m1 0h4m1 0h3m3 0h2m1 0h7m1 0h1m1 0h2m2 0h1m2 0h1m1 0h5m1 0h8m1 0h2m1 0h1m1 0h3m1 0h1m4 0h7m1 0h1M12 77.5h4m4 0h1m2 0h3m1 0h2m3 0h3m2 0h1m1 0h2m1 0h3m1 0h1m1 0h1m1 0h3m3 0h2m1 0h2m3 0h4m3 0h1m1 0h4m3 0h1m1 0h2M4 78.5h7m1 0h1m4 0h3m1 0h1m4 0h1m1 0h1m1 0h1m1 0h1m2 0h3m7 0h1m4 0h1m1 0h1m1 0h1m1 0h1m1 0h1m1 0h2m5 0h3m1 0h2m2 0h2m1 0h1m1 0h3m1 0h1M4 79.5h1m5 0h1m1 0h1m1 0h2m1 0h1m2 0h3m1 0h2m1 0h2m3 0h1m1 0h1m1 0h1m6 0h3m1 0h1m1 0h2m1 0h1m3 0h3m2 0h1m3 0h1m6 0h2m1 0h2m3 0h5M4 80.5h1m1 0h3m1 0h1m1 0h2m1 0h1m3 0h2m1 0h4m1 0h7m1 0h1m1 0h1m3 0h4m1 0h2m1 0h8m1 0h1m3 0h1m1 0h2m1 0h2m2 0h1m2 0h7m1 0h2M4 81.5h1m1 0h3m1 0h1m1 0h2m1 0h1m2 0h1m4 0h1m2 0h1m1 0h1m3 0h2m2 0h2m1 0h1m2 0h1m1 0h4m1 0h1m1 0h3m2 0h1m1 0h1m2 0h2m1 0h2m3 0h2m1 0h1m2 0h1m2 0h1m1 0h2m1 0h1M4 82.5h1m1 0h3m1 0h1m2 0h2m1 0h1m1 0h1m3 0h1m2 0h2m2 0h2m2 0h2m2 0h1m2 0h1m1 0h3m1 0h2m2 0h2m2 0h2m2 0h2m5 0h2m2 0h2m1 0h1m1 0h1m1 0h1m1 0h2m1 0h2m1 0h1M4 83.5h1m5 0h1m2 0h2m1 0h1m1 0h1m1 0h1m1 0h3m1 0h3m2 0h3m1 0h2m1 0h1m4 0h2m3 0h2m1 0h1m1 0h1m4 0h1m1 0h1m1 0h2m1 0h1m1 0h1m1 0h1m1 0h3m1 0h4m1 0h4M4 84.5h7m1 0h1m1 0h1m1 0h3m5 0h1m2 0h2m1 0h2m3 0h2m3 0h1m2 0h1m1 0h5m1 0h3m1 0h2m1 0h1m2 0h2m2 0h2m1 0h7m3 0h4m1 0h1"/></svg>
